<svg viewBox="0 0 1080 1080" fill="none" xmlns="http://www.w3.org/2000/svg">      <defs>  <filter id="filter" x="-20%" y="-20%" width="140%" height="140%" filterUnits="objectBoundingBox" primitiveUnits="userSpaceOnUse" color-interpolation-filters="linearRGB">    <feMorphology operator="dilate" radius="20 20" in="SourceAlpha" result="morphology"/>    <feFlood flood-color="#ffffff" flood-opacity="1" result="flood"/>    <feComposite in="flood" in2="morphology" operator="in" result="composite"/>    <feMerge result="merge">          <feMergeNode in="composite" result="mergeNode"/>      <feMergeNode in="SourceGraphic" result="mergeNode1"/>      </feMerge>  </filter></defs>      <g id="notion-avatar" filter="url(#filter)">        <g id="notion-avatar-face" fill="#ffffff">      <!--?xml version="1.0" encoding="UTF-8"?-->    <title>Face/ 1</title>    <g id="Face/-1" stroke="none" stroke-width="1" fill-rule="evenodd" stroke-linecap="round" stroke-linejoin="round">        <path d="M532,379 C664.54834,379 772,486.45166 772,619 C772,751.54834 664.54834,879 532,879 C435.13263,879 351.668898,801.612202 313.752775,718.980575 L313.322946,718.989282 L312,719 C267.81722,719 232,683.18278 232,639 C232,599.134956 261.158843,566.080325 299.312086,560.00055 C325.599297,455.979213 419.809919,379 532,379 Z M295.858895,624.545187 L304.141105,655.454813" id="Path" stroke="#000000" stroke-width="24"/>    </g>    </g><g id="notion-avatar-nose">      <!--?xml version="1.0" encoding="UTF-8"?-->    <title>Nose/ 4</title>    <g id="Nose/-4" stroke="none" stroke-width="1" fill="none" fill-rule="evenodd" stroke-linecap="round" stroke-linejoin="round">        <path d="M636.843426,596.000252 C661.659687,637.453214 673.277876,666.226337 671.697992,682.319621 C670.118108,698.412905 655.181344,703.444023 626.8877,697.412976" id="Line" stroke="#000000" stroke-width="16" transform="translate(649.363766, 647.939652) rotate(1.032339) translate(-649.363766, -647.939652) "/>    </g>    </g><g id="notion-avatar-mouth">      <!--?xml version="1.0" encoding="UTF-8"?-->    <title>Mouth/ 7</title>    <g id="Mouth/-7" stroke="none" stroke-width="1" fill="none" fill-rule="evenodd" stroke-linecap="round" stroke-linejoin="round">        <path d="M559.810774,753.60177 C566.691716,738.132743 579.421458,738.132743 598,753.60177 L598.555602,753.14234 C616.832552,738.13429 629.377094,738.287434 636.189226,753.60177 C643.001358,768.916106 630.593059,783.900851 598.96433,798.556005 L598,799 C565.659574,784.20354 552.929833,769.070796 559.810774,753.60177 Z" id="Path" stroke="#000000" stroke-width="16" fill="#000000"/>    </g>    </g><g id="notion-avatar-eyes">      <!--?xml version="1.0" encoding="UTF-8"?-->    <title>Eyes/ 3</title>    <g id="Eyes/-3" stroke="none" stroke-width="1" fill="none" fill-rule="evenodd" stroke-linecap="round" stroke-linejoin="round">        <g id="Group" transform="translate(533.944954, 540.730159)" stroke="#000000" stroke-width="12">            <path d="M146.275229,-1.43884904e-13 C159.958467,9.35202544 170.38232,14.8216846 177.546789,16.4089776 C184.711258,17.9962705 196.232359,17.3885306 212.110092,14.5857578" id="Path" transform="translate(179.192661, 8.634921) scale(-1, 1) translate(-179.192661, -8.634921) "/>            <path d="M6.39488462e-14,-1.43884904e-13 C13.6832373,9.35202544 24.1070905,14.8216846 31.2715596,16.4089776 C38.4360288,17.9962705 49.9571297,17.3885306 65.8348624,14.5857578" id="Path"/>        </g>    </g>    </g><g id="notion-avatar-eyebrows">      <g id="Eyebrows/ 12"><g id="Group"><path id="Path" fill-rule="evenodd" clip-rule="evenodd" d="M681 505.316C681 505.316 698.641 492.863 706.392 490.578C714.144 488.294 738 489.316 738 489.316L755 494.913C755 494.913 730.25 494.897 716.549 497.08C702.848 499.263 681 505.316 681 505.316Z" fill="black" stroke="black" stroke-width="8" stroke-linecap="round" stroke-linejoin="round"/><path id="Path_2" fill-rule="evenodd" clip-rule="evenodd" d="M597 505.316C597 505.316 579.359 492.863 571.608 490.578C563.856 488.294 540 489.316 540 489.316L523 494.913C523 494.913 547.75 494.897 561.451 497.08C575.152 499.263 597 505.316 597 505.316Z" fill="black" stroke="black" stroke-width="8" stroke-linecap="round" stroke-linejoin="round"/></g></g>    </g><g id="notion-avatar-glasses">      <!--?xml version="1.0" encoding="UTF-8"?-->    <title>Glasses/ 10</title>    <g id="Glasses/-10" stroke="none" stroke-width="1" fill="none" fill-rule="evenodd">        <g id="Group" transform="translate(289.000000, 475.000000)" fill="#000000">            <rect id="Rectangle" x="201" y="0" width="300" height="23.4"/>            <path d="M329.571429,0 L370.642857,0 L370.642857,50.7333333 C363.797619,41.4888889 356.952381,36.8666667 350.107143,36.8666667 C343.261905,36.8666667 336.416667,41.4888889 329.571429,50.7333333 L329.571429,0 Z" id="Rectangle"/>            <path d="M209.035714,16.4666667 L226.635493,91.6470116 C228.329435,98.8829668 234.782715,104 242.214302,104 L295.809254,104 C302.413177,104 308.338607,99.9426587 310.726587,93.7856009 L340.714286,16.4666667 L340.714286,16.4666667 L209.035714,16.4666667 Z" id="Path" stroke="#000000" stroke-width="16" stroke-linecap="round" stroke-linejoin="round"/>            <path d="M359.5,16.4666667 L377.099778,91.6470116 C378.793721,98.8829668 385.247,104 392.678588,104 L446.273539,104 C452.877463,104 458.802893,99.9426587 461.190872,93.7856009 L491.178571,16.4666667 L491.178571,16.4666667 L359.5,16.4666667 Z" id="Path" stroke="#000000" stroke-width="16" stroke-linecap="round" stroke-linejoin="round" transform="translate(425.339286, 60.233333) scale(-1, 1) translate(-425.339286, -60.233333) "/>            <polygon id="Path" stroke="#000000" stroke-width="4" stroke-linecap="round" stroke-linejoin="round" points="201 2 4 66 0 75 201 22"/>        </g>    </g>    </g><g id="notion-avatar-hair">      <g id="Hairstyle/ 56"><path id="Path" fill-rule="evenodd" clip-rule="evenodd" d="M459 252C314 281 243.651 409.553 213 483C182.349 556.447 182 710 182 836C182 962 62 1080 62 1080H352C352 1080 451.049 866.694 420 836C388.951 805.306 312 719 312 719C312 719 232 705 232 639C232 573 286 566 311 566C336 566 380 447 487 399C594 351 687.325 439.865 708 461C753 507 764 568 764 639C764 675.67 758.252 722.763 741 804C736.416 825.585 643 1080 643 1080H781C781 1080 777.56 1048.95 781 1038C793.31 998.814 813.378 973.044 819 945C833.588 872.231 807.322 755.18 807 738C805.177 640.781 832.688 633.08 819 540C813.343 501.531 808.535 437.476 758 374C707.465 310.523 664 316 664 316C664 316 604 223 459 252Z" fill="black" stroke="black" stroke-width="12" stroke-linecap="round" stroke-linejoin="round"/></g>    </g><g id="notion-avatar-accessories">      <!--?xml version="1.0" encoding="UTF-8"?-->    <title>Accessories/ 0</title>    <g id="Accessories/-0" stroke="none" stroke-width="1" fill="none" fill-rule="evenodd"/>    </g><g id="notion-avatar-details">      <!--?xml version="1.0" encoding="UTF-8"?-->    <title>Details/ 0</title>    <g id="Details/-0" stroke="none" stroke-width="1" fill="none" fill-rule="evenodd"/>    </g><g id="notion-avatar-beard">      <!--?xml version="1.0" encoding="UTF-8"?-->    <title>Beard/ 0</title>    <g id="Beard/-0" stroke="none" stroke-width="1" fill="none" fill-rule="evenodd"/>    </g>      </g>      </svg>
